<svg width="16" height="16" viewBox="0 0 16 16" fill="none" xmlns="http://www.w3.org/2000/svg">
<g clip-path="url(#clip0_2002_237)">
<path d="M11.3333 2.66666H14C14.1768 2.66666 14.3464 2.7369 14.4714 2.86192C14.5964 2.98695 14.6667 3.15652 14.6667 3.33333V14C14.6667 14.1768 14.5964 14.3464 14.4714 14.4714C14.3464 14.5964 14.1768 14.6667 14 14.6667H2.00001C1.8232 14.6667 1.65363 14.5964 1.52861 14.4714C1.40358 14.3464 1.33334 14.1768 1.33334 14V3.33333C1.33334 3.15652 1.40358 2.98695 1.52861 2.86192C1.65363 2.7369 1.8232 2.66666 2.00001 2.66666H4.66668V1.33333H6.00001V2.66666H10V1.33333H11.3333V2.66666ZM13.3333 8H2.66668V13.3333H13.3333V8ZM10 3.99999H6.00001V5.33333H4.66668V3.99999H2.66668V6.66666H13.3333V3.99999H11.3333V5.33333H10V3.99999ZM4.00001 9.33333H5.33334V10.6667H4.00001V9.33333ZM7.33334 9.33333H8.66668V10.6667H7.33334V9.33333ZM10.6667 9.33333H12V10.6667H10.6667V9.33333Z" fill="#979797"/>
</g>
<defs>
<clipPath id="clip0_2002_237">
<rect width="16" height="16" fill="white"/>
</clipPath>
</defs>
</svg>
