<svg width="88" height="16" viewBox="0 0 88 16" fill="none" xmlns="http://www.w3.org/2000/svg">
<g clip-path="url(#clip0_2001_177)">
<path d="M7.99999 12.1733L3.29799 14.8053L4.34799 9.52001L0.391327 5.86134L5.74266 5.22668L7.99999 0.333344L10.2573 5.22668L15.6087 5.86134L11.652 9.52001L12.702 14.8053L7.99999 12.1733Z" fill="#FFA800"/>
</g>
<g clip-path="url(#clip1_2001_177)">
<path d="M26 12.1733L21.298 14.8053L22.348 9.52001L18.3913 5.86134L23.7427 5.22668L26 0.333344L28.2573 5.22668L33.6087 5.86134L29.652 9.52001L30.702 14.8053L26 12.1733Z" fill="#FFA800"/>
</g>
<g clip-path="url(#clip2_2001_177)">
<path d="M44 12.1733L39.298 14.8053L40.348 9.52001L36.3913 5.86134L41.7427 5.22668L44 0.333344L46.2573 5.22668L51.6087 5.86134L47.652 9.52001L48.702 14.8053L44 12.1733Z" fill="#FFA800"/>
</g>
<g clip-path="url(#clip3_2001_177)">
<path d="M62 12.1733L57.298 14.8053L58.348 9.52001L54.3913 5.86134L59.7427 5.22668L62 0.333344L64.2573 5.22668L69.6087 5.86134L65.652 9.52001L66.702 14.8053L62 12.1733Z" fill="#FFA800"/>
</g>
<g clip-path="url(#clip4_2001_177)">
<path d="M80 12.1733L75.298 14.8053L76.348 9.52001L72.3913 5.86134L77.7427 5.22668L80 0.333344L82.2573 5.22668L87.6087 5.86134L83.652 9.52001L84.702 14.8053L80 12.1733Z" fill="#FFA800"/>
</g>
<defs>
<clipPath id="clip0_2001_177">
<rect width="16" height="16" fill="white"/>
</clipPath>
<clipPath id="clip1_2001_177">
<rect width="16" height="16" fill="white" transform="translate(18)"/>
</clipPath>
<clipPath id="clip2_2001_177">
<rect width="16" height="16" fill="white" transform="translate(36)"/>
</clipPath>
<clipPath id="clip3_2001_177">
<rect width="16" height="16" fill="white" transform="translate(54)"/>
</clipPath>
<clipPath id="clip4_2001_177">
<rect width="16" height="16" fill="white" transform="translate(72)"/>
</clipPath>
</defs>
</svg>
